<svg xmlns="http://www.w3.org/2000/svg" version="1.1" xmlns:xlink="http://www.w3.org/1999/xlink" width="500" height="500"><svg xmlns="http://www.w3.org/2000/svg" xmlns:xlink="http://www.w3.org/1999/xlink" width="500" zoomAndPan="magnify" viewBox="0 0 375 374.999991" height="500" preserveAspectRatio="xMidYMid meet" version="1.2"><g id="SvgjsG1042"><path style=" stroke:none;fill-rule:nonzero;fill:#594d44;fill-opacity:1;" d="M 104.34375 125.105469 C 102.8125 115.730469 105.523438 113.0625 114.265625 109.917969 C 123.949219 106.429688 133.671875 98.433594 138.871094 111.847656 C 146.183594 108.480469 160.191406 100.128906 165.046875 111.242188 C 168.746094 119.710938 171.835938 128.332031 175.230469 137.085938 C 178.261719 143.300781 183.210938 156.820312 172.855469 159.785156 C 160.078125 163.4375 119.210938 184.492188 108.269531 184.628906 L 128.367188 225.742188 C 132.675781 234.5 137.441406 243.804688 141.421875 252.648438 C 154.199219 253.136719 171.269531 252.550781 184.300781 252.515625 L 268.378906 252.464844 L 297.628906 252.441406 C 303.144531 252.4375 308.925781 252.292969 314.421875 252.714844 C 316.285156 252.859375 316.710938 253.152344 318.207031 254.261719 C 319.972656 255.570312 320.332031 259.808594 320.339844 261.964844 C 320.378906 269.128906 320.355469 276.371094 320.347656 283.546875 L 320.332031 324.589844 L 320.351562 347.023438 C 320.359375 351.160156 320.742188 356.765625 320.007812 360.707031 C 318.519531 368.6875 312.457031 371.988281 305.0625 371.996094 C 291.277344 372.003906 277.683594 371.996094 263.992188 371.996094 L 182.933594 372.003906 L 137.070312 372.003906 C 130.066406 372.019531 123.054688 372.101562 116.050781 372.03125 C 111.492188 371.984375 108.246094 371.5625 104.835938 368.300781 C 99.429688 363.132812 100.386719 355.054688 100.398438 348.214844 L 100.429688 329.207031 L 100.382812 260.441406 L 99.179688 260.492188 C 66.109375 261.503906 42.792969 242.894531 40.960938 208.617188 C 40.234375 194.949219 47.417969 171.976562 61.882812 168.199219 C 68.980469 166.34375 87.480469 167.367188 95.871094 167.191406 L 95.492188 166.332031 C 92.148438 158.6875 87.910156 149.519531 85.894531 141.539062 C 83.210938 130.90625 97.144531 128.046875 104.34375 125.105469 Z M 104.34375 125.105469 "></path><path style=" stroke:none;fill-rule:nonzero;fill:#cfa066;fill-opacity:1;" d="M 70.757812 175.191406 C 79.820312 174.882812 89.953125 175.125 99.089844 175.152344 C 101.542969 180.703125 102.167969 182.988281 108.269531 184.628906 L 128.367188 225.742188 C 132.675781 234.5 137.441406 243.804688 141.421875 252.648438 C 131.148438 253.03125 118.734375 252.738281 108.316406 252.746094 C 105.195312 247.125 101.824219 239.6875 98.972656 233.808594 L 83.914062 202.457031 C 79.753906 193.589844 74.570312 184.0625 70.757812 175.191406 Z M 70.757812 175.191406 "></path><path style=" stroke:none;fill-rule:nonzero;fill:#e2b573;fill-opacity:1;" d="M 156.8125 260.949219 L 257.664062 260.945312 C 275.855469 260.941406 294.503906 261.140625 312.65625 260.875 L 312.65625 291.203125 L 312.652344 299.03125 L 312.652344 328.960938 L 312.648438 337.019531 C 312.578125 366.363281 317.964844 364.085938 287.824219 364.085938 L 256.4375 364.082031 L 156.828125 364.113281 L 156.835938 336.96875 L 156.835938 291.011719 Z M 156.8125 260.949219 "></path><path style=" stroke:none;fill-rule:nonzero;fill:#cfa066;fill-opacity:1;" d="M 156.835938 291.011719 L 187.066406 291.011719 C 191.996094 291.003906 196.914062 290.933594 201.835938 291.046875 C 207.5 291.175781 206.992188 299.074219 201.796875 299.121094 C 186.9375 299.253906 171.683594 299.359375 156.835938 299.160156 Z M 156.835938 291.011719 "></path><path style=" stroke:none;fill-rule:nonzero;fill:#cfa066;fill-opacity:1;" d="M 312.652344 299.03125 C 300.253906 300.105469 285.355469 298.800781 272.761719 299.097656 C 268.078125 299.207031 267.75 290.90625 273.007812 291.03125 C 286.035156 291.34375 299.679688 290.449219 312.65625 291.203125 Z M 312.652344 299.03125 "></path><path style=" stroke:none;fill-rule:nonzero;fill:#cfa066;fill-opacity:1;" d="M 156.835938 328.941406 C 160.628906 328.917969 180.949219 327.855469 183.257812 330.070312 C 184.070312 330.84375 184.496094 332.152344 184.484375 333.257812 C 184.46875 334.242188 184.003906 335.011719 183.261719 335.636719 C 182.28125 336.46875 180.9375 336.867188 179.679688 337.042969 C 174.488281 337.78125 162.429688 337.292969 156.835938 336.96875 Z M 156.835938 328.941406 "></path><path style=" stroke:none;fill-rule:nonzero;fill:#cfa066;fill-opacity:1;" d="M 312.648438 337.019531 C 307.449219 337.050781 289.917969 338.433594 286.578125 335.671875 C 285.753906 334.992188 285.257812 334.074219 285.203125 333.003906 C 285.148438 331.824219 285.378906 330.878906 286.195312 330.015625 C 286.539062 329.644531 286.953125 329.292969 287.453125 329.160156 C 291.375 328.152344 307.625 328.949219 312.652344 328.960938 Z M 312.648438 337.019531 "></path><path style=" stroke:none;fill-rule:nonzero;fill:#594d44;fill-opacity:1;" d="M 235.3125 278.210938 C 250.921875 277.289062 256.816406 294.011719 245.121094 304.449219 C 245.976562 309.738281 247.367188 315.078125 248.023438 320.34375 C 248.679688 325.617188 245.742188 326.957031 241.300781 326.941406 C 238.449219 326.980469 235.386719 327.234375 232.5625 326.863281 C 230.726562 326.625 228.679688 326.078125 227.550781 324.484375 C 225.707031 321.886719 229.3125 308.046875 229.894531 304.195312 C 220.140625 295.671875 222.375 281.546875 235.3125 278.210938 Z M 235.3125 278.210938 "></path><path style=" stroke:none;fill-rule:nonzero;fill:#e2b573;fill-opacity:1;" d="M 108.46875 261.140625 C 121.875 261.1875 135.316406 261.300781 148.71875 261.058594 L 148.714844 290.414062 C 148.710938 294.570312 148.84375 299.570312 148.675781 303.65625 C 148.703125 310.832031 148.773438 318.066406 148.671875 325.238281 L 148.726562 339.160156 C 148.5625 347.265625 148.726562 355.9375 148.730469 364.085938 C 136.65625 364.097656 124.414062 364.199219 112.355469 364.027344 C 106.941406 360.476562 108.632812 354.871094 108.464844 349.136719 C 108.34375 345.160156 108.5 341.039062 108.503906 337.042969 L 108.527344 328.949219 L 108.523438 299.101562 L 108.519531 291.113281 Z M 108.46875 261.140625 "></path><path style=" stroke:none;fill-rule:nonzero;fill:#e2b573;fill-opacity:1;" d="M 108.46875 261.140625 C 121.875 261.1875 135.316406 261.300781 148.71875 261.058594 L 148.714844 290.414062 C 148.484375 290.589844 148.253906 290.769531 148.023438 290.945312 C 136.710938 291.230469 119.265625 290.867188 108.519531 291.113281 Z M 108.46875 261.140625 "></path><path style=" stroke:none;fill-rule:nonzero;fill:#e2b573;fill-opacity:1;" d="M 108.503906 337.042969 C 119.6875 337.15625 136.140625 337.117188 147.816406 337.042969 C 148.003906 337.199219 148.1875 337.355469 148.371094 337.515625 L 148.726562 339.160156 C 148.5625 347.265625 148.726562 355.9375 148.730469 364.085938 C 136.65625 364.097656 124.414062 364.199219 112.355469 364.027344 C 106.941406 360.476562 108.632812 354.871094 108.464844 349.136719 C 108.34375 345.160156 108.5 341.039062 108.503906 337.042969 Z M 108.503906 337.042969 "></path><path style=" stroke:none;fill-rule:nonzero;fill:#cfa066;fill-opacity:1;" d="M 148.714844 290.414062 C 148.710938 294.570312 148.84375 299.570312 148.675781 303.65625 L 148.410156 299.191406 C 136.121094 299.265625 120.644531 299.578125 108.523438 299.101562 L 108.519531 291.113281 C 119.265625 290.867188 136.710938 291.230469 148.023438 290.945312 C 148.253906 290.769531 148.484375 290.589844 148.714844 290.414062 Z M 148.714844 290.414062 "></path><path style=" stroke:none;fill-rule:nonzero;fill:#cfa066;fill-opacity:1;" d="M 108.527344 328.949219 C 121.171875 328.539062 135.6875 329.507812 148.0625 328.839844 C 148.648438 328.007812 148.601562 326.339844 148.671875 325.238281 L 148.726562 339.160156 L 148.371094 337.515625 C 148.1875 337.355469 148.003906 337.199219 147.816406 337.042969 C 136.140625 337.117188 119.6875 337.15625 108.503906 337.042969 Z M 108.527344 328.949219 "></path><path style=" stroke:none;fill-rule:nonzero;fill:#a4a192;fill-opacity:1;" d="M 129.273438 112.269531 C 132.660156 112.480469 132.457031 118.550781 133.738281 119.660156 C 139.078125 124.285156 150.5 112.550781 156.980469 113.730469 C 157.429688 114.136719 158.199219 115.054688 158.355469 115.59375 C 159.808594 120.691406 172.253906 147.660156 171.164062 151.03125 C 167.960938 153.695312 139.574219 164.636719 133.566406 167.0625 C 129.289062 168.824219 112.445312 176.300781 108.980469 176.324219 C 108.46875 176.09375 108.222656 175.824219 107.90625 175.375 C 105.570312 172.089844 93.34375 141.941406 94.015625 139.097656 C 94.628906 136.476562 108.988281 132.484375 111.949219 130.632812 C 115.941406 128.140625 110.660156 123.785156 111.652344 120.699219 C 112.304688 118.667969 126.527344 113.597656 129.273438 112.269531 Z M 129.273438 112.269531 "></path><path style=" stroke:none;fill-rule:nonzero;fill:#594d44;fill-opacity:1;" d="M 129.207031 130.648438 C 137.121094 128.964844 144.898438 134.019531 146.582031 141.9375 C 148.265625 149.855469 143.214844 157.640625 135.300781 159.324219 C 127.386719 161.011719 119.609375 155.953125 117.925781 148.035156 C 116.242188 140.117188 121.292969 132.332031 129.207031 130.648438 Z M 129.207031 130.648438 "></path><path style=" stroke:none;fill-rule:nonzero;fill:#a4a192;fill-opacity:1;" d="M 130.238281 138.25 C 134.011719 137.101562 138 139.222656 139.15625 142.992188 C 140.3125 146.765625 138.199219 150.757812 134.433594 151.925781 C 130.65625 153.09375 126.652344 150.972656 125.492188 147.191406 C 124.332031 143.410156 126.460938 139.402344 130.238281 138.25 Z M 130.238281 138.25 "></path><path style=" stroke:none;fill-rule:nonzero;fill:#e2b573;fill-opacity:1;" d="M 62.101562 176.699219 C 63.53125 177.9375 95.917969 245.617188 99.335938 252.703125 C 94.996094 252.753906 90.898438 252.59375 86.597656 252.03125 C 76.054688 250.375 65.722656 244.941406 58.941406 236.644531 C 45.246094 219.898438 44.578125 191 62.101562 176.699219 Z M 62.101562 176.699219 "></path><path style=" stroke:none;fill-rule:nonzero;fill:#594d44;fill-opacity:1;" d="M 240.554688 53.78125 C 245.242188 53.160156 250.898438 54.527344 255.351562 56.054688 C 267.667969 60.285156 281.601562 62.855469 293.488281 68.035156 C 302.640625 72.054688 308.429688 84.191406 305.214844 93.777344 C 298.808594 112.863281 296.851562 138.414062 269.703125 131.925781 C 263.890625 130.453125 256.460938 127.9375 250.601562 126.140625 C 244.730469 128.886719 225.371094 142.296875 225.277344 127.988281 C 225.261719 125.804688 227.058594 120.683594 227.796875 118.335938 L 227.589844 118.25 C 218.40625 114.414062 212.425781 104.335938 214.722656 94.304688 C 217 84.371094 220.882812 72.488281 225.609375 63.503906 C 228.34375 58.300781 234.964844 54.921875 240.554688 53.78125 Z M 240.554688 53.78125 "></path><path style=" stroke:none;fill-rule:nonzero;fill:#b5c3c9;fill-opacity:1;" d="M 242.875 61.527344 C 248.308594 61.140625 263.207031 67.0625 269.25 68.566406 C 275.660156 70.925781 284.097656 71.980469 290.0625 75.066406 C 303.261719 82.453125 297.097656 93.832031 293.824219 104.453125 C 289.570312 118.253906 287.417969 128.335938 270.226562 123.820312 C 264.214844 122 255.363281 119.078125 249.4375 117.835938 C 245.269531 119.558594 237.648438 123.84375 233.414062 126.089844 C 234.597656 121.726562 238.625 114.984375 233.144531 112.792969 C 221.679688 108.222656 220.136719 99.371094 224.351562 88.628906 C 228.679688 77.601562 228.75 64.007812 242.875 61.527344 Z M 242.875 61.527344 "></path><path style=" stroke:none;fill-rule:nonzero;fill:#594d44;fill-opacity:1;" d="M 149.042969 3.703125 C 160.011719 2.484375 169.917969 9.792969 173.226562 20.148438 C 178.019531 35.160156 168.769531 50.835938 161.160156 63.175781 C 157.625 68.535156 154.425781 74.363281 150.199219 79.199219 C 144.953125 85.191406 138.472656 82.273438 132.460938 79.4375 C 128.113281 77.382812 124.027344 75.167969 119.855469 72.957031 C 107.808594 66.058594 93.332031 57.449219 89.75 42.898438 C 86.621094 30.1875 93.828125 17.929688 106.792969 15.214844 C 114.871094 13.523438 121.855469 15.925781 128.582031 20.363281 C 132.890625 11.273438 138.738281 5.082031 149.042969 3.703125 Z M 149.042969 3.703125 "></path><path style=" stroke:none;fill-rule:nonzero;fill:#f8b1a1;fill-opacity:1;" d="M 149.179688 11.769531 C 151.273438 11.621094 154.210938 11.769531 156.175781 12.675781 C 176 21.8125 162.367188 46.667969 154.265625 59.359375 C 151.9375 63.007812 146.03125 72.988281 142.726562 74.417969 C 138.421875 74.296875 121.800781 64.78125 117.261719 62.210938 C 108.71875 56.574219 98.332031 50.105469 96.976562 38.84375 C 95.972656 30.492188 102.015625 23.648438 110.238281 22.792969 C 117.53125 22.03125 122.816406 26.339844 127.960938 30.902344 C 128.90625 31.738281 130.839844 33 132.148438 32.742188 C 133.945312 32.339844 134.515625 29.453125 134.902344 27.878906 C 135.761719 24.382812 136.683594 21.4375 138.757812 18.417969 C 141.515625 14.40625 144.492188 12.660156 149.179688 11.769531 Z M 149.179688 11.769531 "></path><path style=" stroke:none;fill-rule:nonzero;fill:#594d44;fill-opacity:1;" d="M 208.1875 155.457031 C 211.34375 155.148438 213.375 155.839844 216.359375 156.757812 L 236.441406 163.078125 C 240.746094 164.441406 245.191406 165.597656 249.261719 167.566406 C 257.863281 171.71875 255.296875 178.90625 252.980469 185.972656 C 257.910156 184.304688 264.242188 181.375 269.425781 181.34375 C 271.085938 181.332031 272.714844 181.796875 273.894531 183.019531 C 274.75 183.914062 274.847656 184.910156 274.832031 186.101562 C 274.773438 190.421875 265.269531 220.628906 262.578125 222.96875 C 261.648438 223.773438 260.246094 224.210938 259.035156 224.035156 C 256.984375 223.734375 255.734375 222.011719 254.589844 220.476562 L 246.335938 207.875 C 242.707031 218.808594 240.023438 223.476562 227.667969 219.210938 C 217.136719 215.574219 206.097656 212.550781 195.65625 208.589844 C 190.820312 206.757812 188.9375 201.753906 190.257812 196.871094 C 193.417969 185.25 197.289062 173.691406 201.023438 162.238281 C 202.144531 158.789062 204.949219 156.660156 208.1875 155.457031 Z M 208.1875 155.457031 "></path><path style=" stroke:none;fill-rule:nonzero;fill:#a4a192;fill-opacity:1;" d="M 209.441406 163.089844 C 212.535156 163.304688 246.019531 174.128906 247.566406 176.007812 C 247.640625 178.726562 238.003906 209.660156 236.015625 213.007812 C 230.1875 213.199219 209.589844 204.132812 202.550781 202.777344 C 201.84375 202.640625 197.660156 201.046875 197.855469 200.121094 C 199.113281 194.21875 206.5 166.089844 209.441406 163.089844 Z M 209.441406 163.089844 "></path><path style=" stroke:none;fill-rule:nonzero;fill:#a4a192;fill-opacity:1;" d="M 265.882812 189.78125 L 266.074219 190.109375 C 265.742188 192.058594 264.109375 196.53125 263.417969 198.589844 L 258.726562 212.804688 L 255.003906 207.214844 C 253.097656 204.429688 251.351562 202.019531 249.296875 199.335938 L 250.777344 194.488281 C 256.050781 192.953125 260.679688 191.515625 265.882812 189.78125 Z M 265.882812 189.78125 "></path><path style=" stroke:none;fill-rule:nonzero;fill:#e2b573;fill-opacity:1;" d="M 277.351562 22.925781 C 282.449219 22.582031 286.886719 26.390625 287.324219 31.484375 C 287.761719 36.582031 284.042969 41.089844 278.957031 41.621094 C 275.585938 41.976562 272.285156 40.476562 270.324219 37.707031 C 268.367188 34.9375 268.054688 31.324219 269.511719 28.257812 C 270.96875 25.191406 273.96875 23.152344 277.351562 22.925781 Z M 277.351562 22.925781 "></path><path style=" stroke:none;fill-rule:nonzero;fill:#a4a192;fill-opacity:1;" d="M 233.15625 7.929688 C 248.539062 7.355469 221.15625 33.910156 218.304688 35.457031 C 216.15625 35.421875 214.25 34.804688 213.484375 32.574219 C 213.042969 31.289062 213.617188 29.265625 214.484375 28.277344 C 218.824219 23.34375 223.25 18.480469 227.523438 13.480469 C 229.253906 11.449219 230.890625 9.378906 233.15625 7.929688 Z M 233.15625 7.929688 "></path><path style=" stroke:none;fill-rule:nonzero;fill:#e2b573;fill-opacity:1;" d="M 162.898438 186.332031 C 177.257812 186.871094 152.710938 208.308594 149.898438 210.070312 C 139.910156 209.371094 148.25 199.695312 151.769531 196.777344 C 155.398438 193.769531 158.789062 188.777344 162.898438 186.332031 Z M 162.898438 186.332031 "></path><path style=" stroke:none;fill-rule:nonzero;fill:#e2b573;fill-opacity:1;" d="M 81.230469 92.378906 C 83.988281 91.746094 86.875 92.652344 88.777344 94.75 C 90.675781 96.847656 91.300781 99.808594 90.402344 102.496094 C 89.503906 105.183594 87.226562 107.175781 84.449219 107.707031 C 80.257812 108.507812 76.195312 105.800781 75.320312 101.625 C 74.441406 97.445312 77.070312 93.332031 81.230469 92.378906 Z M 81.230469 92.378906 "></path><path style=" stroke:none;fill-rule:nonzero;fill:#a4a192;fill-opacity:1;" d="M 279.417969 155.078125 C 283.5625 154.679688 286.359375 157.242188 289.683594 159.5625 C 294.046875 162.609375 301.613281 166.074219 295.777344 171.636719 C 292.402344 172.644531 288.785156 169.753906 286.125 167.714844 C 282.027344 164.578125 273.71875 160.746094 279.417969 155.078125 Z M 279.417969 155.078125 "></path><path style=" stroke:none;fill-rule:nonzero;fill:#e2b573;fill-opacity:1;" d="M 185.507812 68.683594 C 187.429688 68.074219 189.527344 68.550781 191 69.929688 C 192.472656 71.304688 193.089844 73.371094 192.613281 75.332031 C 192.136719 77.289062 190.640625 78.839844 188.699219 79.386719 C 185.765625 80.207031 182.714844 78.527344 181.84375 75.605469 C 180.972656 72.683594 182.601562 69.605469 185.507812 68.683594 Z M 185.507812 68.683594 "></path><path style=" stroke:none;fill-rule:nonzero;fill:#a4a192;fill-opacity:1;" d="M 172.664062 222.324219 C 174.5625 221.660156 176.675781 222.070312 178.1875 223.398438 C 179.699219 224.730469 180.378906 226.769531 179.964844 228.742188 C 179.550781 230.714844 178.105469 232.308594 176.1875 232.917969 C 173.28125 233.835938 170.175781 232.253906 169.210938 229.359375 C 168.25 226.464844 169.785156 223.332031 172.664062 222.324219 Z M 172.664062 222.324219 "></path></g></svg><style>@media (prefers-color-scheme: light) { :root { filter: none; } }
@media (prefers-color-scheme: dark) { :root { filter: contrast(1) brightness(1.2); } }
</style></svg>